# xmcd
#
# Track frame offsets:
#	150
#	17852
#	28115
#	46320
#	61452
#	77152
#	91920
#	104427
#	112567
#	128860
#	142502
#	153842
#
# Disc length: 2248 seconds
#
# Revision: 1
# Processed by: cddbd v1.5.2PL0 Copyright (c) Steve Scherf et al.
# Submitted via: audiograbber 1.83.01
#
DISCID=8a08c60c
DTITLE=LÁZARO DO PIAUÍ - FORRÓ UNIVERSITÁRIO
DYEAR=1900
DGENRE=FORRÓ
TTITLE0=SALA DE REBOCO-TERESINA-SABIÁ
TTITLE1=BOIADEIRO
TTITLE2=FORRÓ PESADO-XILILIQUE-RESPEITA JANUÁRIO
TTITLE3=MORRENDO DE SAUDADES
TTITLE4=PEQUENININHA
TTITLE5=FORRÓ PORRETA
TTITLE6=PASSA LÁ EM CASA
TTITLE7=PROCURANDO TU
TTITLE8=RIACHO DO NAVIO-FORRÓ NO ESCURO-CINTURA FINA
TTITLE9=FORRÓ DO BOM
TTITLE10=MAU CONTERRÂNEO
TTITLE11=TÔ CHEGANDO
EXTD=
EXTT0=
EXTT1=
EXTT2=
EXTT3=
EXTT4=
EXTT5=
EXTT6=
EXTT7=
EXTT8=
EXTT9=
EXTT10=
EXTT11=
PLAYORDER=
